<svg width="105" height="24" viewBox="0 0 105 24" fill="none" xmlns="http://www.w3.org/2000/svg">
<g clip-path="url(#clip0_214_3394)">
<path d="M9.68573 0.428467H1.45716C0.889096 0.428467 0.428589 0.888974 0.428589 1.45704V9.68561C0.428589 10.2537 0.889096 10.7142 1.45716 10.7142H9.68573C10.2538 10.7142 10.7143 10.2537 10.7143 9.68561V1.45704C10.7143 0.888974 10.2538 0.428467 9.68573 0.428467Z" fill="#0FBD67"/>
<path d="M24 5.57143C24 2.49441 21.5056 0 18.4286 0C15.3516 0 12.8572 2.49441 12.8572 5.57143C12.8572 8.64844 15.3516 11.1429 18.4286 11.1429C21.5056 11.1429 24 8.64844 24 5.57143Z" fill="#0F5BBC"/>
<path d="M4.43143 13.5598C4.90286 12.6256 6.24 12.6256 6.70286 13.5598L8.74286 17.6398L10.9971 22.157C11.4171 23.0056 10.8086 23.9998 9.85714 23.9998H1.26857C0.325713 23.9998 -0.29143 23.0056 0.12857 22.157L2.38286 17.6398L4.42286 13.5598H4.43143Z" fill="#BC660F"/>
<path d="M20.7686 18.4283L23.52 15.6769C24.1628 15.034 24.1628 13.9883 23.52 13.3369C22.8771 12.694 21.8314 12.694 21.18 13.3369L18.4286 16.0883L15.6771 13.3369C15.0343 12.694 13.9886 12.694 13.3371 13.3369C12.6943 13.9797 12.6943 15.0255 13.3371 15.6769L16.0886 18.4283L13.3371 21.1797C12.6943 21.8226 12.6943 22.8683 13.3371 23.5197C13.6628 23.8455 14.0828 23.9997 14.5028 23.9997C14.9228 23.9997 15.3514 23.8369 15.6686 23.5197L18.42 20.7683L21.1714 23.5197C21.4971 23.8455 21.9171 23.9997 22.3371 23.9997C22.7571 23.9997 23.1857 23.8369 23.5028 23.5197C24.1457 22.8769 24.1457 21.8312 23.5028 21.1797L20.7514 18.4283H20.7686Z" fill="#B81225"/>
</g>
<path d="M39.426 4.506C41.372 4.506 42.786 4.912 43.668 5.724C44.564 6.536 45.012 7.656 45.012 9.084C45.012 9.728 44.914 10.344 44.718 10.932C44.522 11.506 44.193 12.024 43.731 12.486C43.269 12.948 42.66 13.312 41.904 13.578C41.162 13.844 40.238 13.977 39.132 13.977H37.641V19.5H34.953V4.506H39.426ZM39.258 6.732H37.641V11.751H38.859C39.587 11.751 40.203 11.667 40.707 11.499C41.225 11.317 41.617 11.037 41.883 10.659C42.149 10.281 42.282 9.791 42.282 9.189C42.282 8.363 42.037 7.747 41.547 7.341C41.057 6.935 40.294 6.732 39.258 6.732ZM49.599 19.5H46.953V3.54H49.599V19.5ZM56.7683 7.908C58.2383 7.908 59.3513 8.23 60.1073 8.874C60.8773 9.504 61.2623 10.498 61.2623 11.856V19.5H59.3933L58.8683 17.925H58.7843C58.4623 18.331 58.1263 18.674 57.7763 18.954C57.4403 19.22 57.0483 19.409 56.6003 19.521C56.1663 19.647 55.6343 19.71 55.0043 19.71C54.3323 19.71 53.7233 19.584 53.1773 19.332C52.6453 19.08 52.2253 18.695 51.9172 18.177C51.6093 17.645 51.4553 16.98 51.4553 16.182C51.4553 15.006 51.8823 14.124 52.7363 13.536C53.6043 12.934 54.9133 12.605 56.6633 12.549L58.6373 12.486V11.919C58.6373 11.191 58.4623 10.673 58.1123 10.365C57.7623 10.057 57.2723 9.903 56.6423 9.903C56.0683 9.903 55.5153 9.987 54.9833 10.155C54.4513 10.323 53.9333 10.519 53.4293 10.743L52.5893 8.895C53.1493 8.601 53.7863 8.363 54.5003 8.181C55.2283 7.999 55.9843 7.908 56.7683 7.908ZM57.2513 14.166C56.0893 14.208 55.2843 14.411 54.8363 14.775C54.3883 15.125 54.1643 15.601 54.1643 16.203C54.1643 16.735 54.3253 17.12 54.6473 17.358C54.9693 17.596 55.3823 17.715 55.8863 17.715C56.6563 17.715 57.3073 17.498 57.8393 17.064C58.3713 16.616 58.6373 15.958 58.6373 15.09V14.124L57.2513 14.166ZM69.918 7.908C71.192 7.908 72.186 8.237 72.9 8.895C73.628 9.553 73.992 10.617 73.992 12.087V19.5H71.346V12.612C71.346 11.758 71.178 11.121 70.842 10.701C70.506 10.267 69.974 10.05 69.246 10.05C68.182 10.05 67.454 10.386 67.062 11.058C66.67 11.716 66.474 12.675 66.474 13.935V19.5H63.828V8.118H65.865L66.243 9.609H66.39C66.642 9.217 66.95 8.895 67.314 8.643C67.678 8.391 68.084 8.209 68.532 8.097C68.98 7.971 69.442 7.908 69.918 7.908ZM86.7156 13.788C86.7156 14.74 86.5896 15.58 86.3376 16.308C86.0856 17.036 85.7216 17.659 85.2456 18.177C84.7836 18.681 84.2096 19.066 83.5236 19.332C82.8516 19.584 82.1026 19.71 81.2766 19.71C80.4926 19.71 79.7716 19.584 79.1136 19.332C78.4556 19.066 77.8816 18.681 77.3916 18.177C76.9156 17.659 76.5446 17.036 76.2786 16.308C76.0126 15.58 75.8796 14.74 75.8796 13.788C75.8796 12.528 76.0966 11.464 76.5306 10.596C76.9646 9.714 77.5876 9.049 78.3996 8.601C79.2256 8.139 80.1986 7.908 81.3186 7.908C82.3826 7.908 83.3136 8.139 84.1116 8.601C84.9236 9.049 85.5606 9.714 86.0226 10.596C86.4846 11.464 86.7156 12.528 86.7156 13.788ZM78.5886 13.788C78.5886 14.586 78.6796 15.272 78.8616 15.846C79.0576 16.406 79.3516 16.833 79.7436 17.127C80.1496 17.421 80.6676 17.568 81.2976 17.568C81.9416 17.568 82.4596 17.421 82.8516 17.127C83.2576 16.833 83.5516 16.406 83.7336 15.846C83.9156 15.272 84.0066 14.586 84.0066 13.788C84.0066 12.976 83.9086 12.297 83.7126 11.751C83.5306 11.191 83.2366 10.771 82.8306 10.491C82.4386 10.197 81.9276 10.05 81.2976 10.05C80.3456 10.05 79.6526 10.372 79.2186 11.016C78.7986 11.66 78.5886 12.584 78.5886 13.788ZM96.3548 14.607C96.2848 14.341 96.2008 14.012 96.1028 13.62C96.0048 13.214 95.8998 12.794 95.7878 12.36C95.6898 11.926 95.5918 11.527 95.4938 11.163C95.4098 10.799 95.3538 10.519 95.3258 10.323H95.2418C95.1998 10.519 95.1368 10.799 95.0528 11.163C94.9688 11.527 94.8778 11.926 94.7798 12.36C94.6818 12.794 94.5768 13.214 94.4648 13.62C94.3668 14.026 94.2828 14.362 94.2128 14.628L92.8898 19.5H89.9918L86.7998 8.097H89.4668L90.8738 13.536C90.9718 13.9 91.0628 14.313 91.1468 14.775C91.2448 15.237 91.3288 15.685 91.3988 16.119C91.4688 16.539 91.5178 16.882 91.5458 17.148H91.6298C91.6578 16.966 91.6928 16.728 91.7348 16.434C91.7768 16.126 91.8258 15.811 91.8818 15.489C91.9518 15.153 92.0148 14.845 92.0708 14.565C92.1408 14.285 92.1968 14.068 92.2388 13.914L93.8768 8.097H96.7748L98.3498 13.914C98.4198 14.166 98.4968 14.495 98.5808 14.901C98.6648 15.307 98.7418 15.713 98.8118 16.119C98.8818 16.525 98.9238 16.861 98.9378 17.127H99.0218C99.0498 16.889 99.0988 16.567 99.1688 16.161C99.2388 15.741 99.3228 15.293 99.4208 14.817C99.5188 14.341 99.6238 13.914 99.7358 13.536L101.164 8.097H103.789L100.555 19.5H97.6148L96.3548 14.607Z" fill="#34343C"/>
<defs>
<clipPath id="clip0_214_3394">
<rect width="24" height="24" fill="white"/>
</clipPath>
</defs>
</svg>
