<svg width="87" height="32" viewBox="0 0 87 32" fill="none" xmlns="http://www.w3.org/2000/svg">
<g clip-path="url(#clip0_19_1478)">
<path d="M14.4576 8.28564H8.97185C8.59314 8.28564 8.28613 8.59265 8.28613 8.97136V14.4571C8.28613 14.8358 8.59314 15.1428 8.97185 15.1428H14.4576C14.8363 15.1428 15.1433 14.8358 15.1433 14.4571V8.97136C15.1433 8.59265 14.8363 8.28564 14.4576 8.28564Z" fill="#0FBD67"/>
<path d="M23.9999 11.7143C23.9999 9.66294 22.3369 8 20.2856 8C18.2342 8 16.5713 9.66294 16.5713 11.7143C16.5713 13.7656 18.2342 15.4286 20.2856 15.4286C22.3369 15.4286 23.9999 13.7656 23.9999 11.7143Z" fill="#0F5BBC"/>
<path d="M10.9541 17.0399C11.2684 16.417 12.1598 16.417 12.4684 17.0399L13.8284 19.7599L15.3313 22.7713C15.6113 23.337 15.2056 23.9999 14.5713 23.9999H8.84555C8.21698 23.9999 7.80555 23.337 8.08555 22.7713L9.58841 19.7599L10.9484 17.0399H10.9541Z" fill="#BC660F"/>
<path d="M21.846 20.2855L23.6803 18.4513C24.1089 18.0227 24.1089 17.3255 23.6803 16.8913C23.2517 16.4627 22.5546 16.4627 22.1203 16.8913L20.286 18.7255L18.4517 16.8913C18.0232 16.4627 17.326 16.4627 16.8917 16.8913C16.4632 17.3198 16.4632 18.017 16.8917 18.4513L18.726 20.2855L16.8917 22.1198C16.4632 22.5484 16.4632 23.2455 16.8917 23.6798C17.1089 23.897 17.3889 23.9998 17.6689 23.9998C17.9489 23.9998 18.2346 23.8913 18.446 23.6798L20.2803 21.8455L22.1146 23.6798C22.3317 23.897 22.6117 23.9998 22.8917 23.9998C23.1717 23.9998 23.4575 23.8913 23.6689 23.6798C24.0975 23.2513 24.0975 22.5541 23.6689 22.1198L21.8346 20.2855H21.846Z" fill="#B81225"/>
</g>
<path d="M34.452 11.004C35.74 11.004 36.678 11.284 37.266 11.844C37.8633 12.3947 38.162 13.1553 38.162 14.126C38.162 14.5647 38.0967 14.9847 37.966 15.386C37.8353 15.778 37.616 16.1327 37.308 16.45C37.0093 16.758 36.6127 17.0007 36.118 17.178C35.6233 17.3553 35.012 17.444 34.284 17.444H33.374V21H31.26V11.004H34.452ZM34.34 12.74H33.374V15.708H34.074C34.4753 15.708 34.8207 15.6567 35.11 15.554C35.3993 15.4513 35.6233 15.288 35.782 15.064C35.9407 14.84 36.02 14.5507 36.02 14.196C36.02 13.7013 35.8847 13.3373 35.614 13.104C35.3433 12.8613 34.9187 12.74 34.34 12.74ZM41.469 21H39.383V10.36H41.469V21ZM46.2846 13.202C47.3113 13.202 48.0953 13.426 48.6366 13.874C49.1873 14.3127 49.4626 14.9893 49.4626 15.904V21H48.0066L47.6006 19.964H47.5446C47.33 20.2347 47.106 20.4587 46.8726 20.636C46.6486 20.8133 46.3873 20.9393 46.0886 21.014C45.7993 21.098 45.44 21.14 45.0106 21.14C44.5626 21.14 44.1566 21.056 43.7926 20.888C43.438 20.7107 43.158 20.4447 42.9526 20.09C42.7473 19.726 42.6446 19.2687 42.6446 18.718C42.6446 17.906 42.9293 17.3087 43.4986 16.926C44.068 16.534 44.922 16.3193 46.0606 16.282L47.3906 16.24V15.904C47.3906 15.5027 47.2833 15.2087 47.0686 15.022C46.8633 14.8353 46.574 14.742 46.2006 14.742C45.8273 14.742 45.4633 14.798 45.1086 14.91C44.754 15.0127 44.3993 15.1433 44.0446 15.302L43.3586 13.888C43.7693 13.6733 44.222 13.5053 44.7166 13.384C45.2206 13.2627 45.7433 13.202 46.2846 13.202ZM46.5786 17.486C45.9066 17.5047 45.44 17.626 45.1786 17.85C44.9173 18.074 44.7866 18.368 44.7866 18.732C44.7866 19.0493 44.88 19.278 45.0666 19.418C45.2533 19.5487 45.496 19.614 45.7946 19.614C46.2426 19.614 46.6206 19.4833 46.9286 19.222C47.2366 18.9513 47.3906 18.5733 47.3906 18.088V17.458L46.5786 17.486ZM55.4379 13.216C56.2592 13.216 56.9172 13.44 57.4119 13.888C57.9065 14.3267 58.1539 15.036 58.1539 16.016V21H56.0679V16.534C56.0679 15.9833 55.9699 15.5727 55.7739 15.302C55.5779 15.022 55.2652 14.882 54.8359 14.882C54.2012 14.882 53.7672 15.1013 53.5339 15.54C53.3005 15.9693 53.1839 16.59 53.1839 17.402V21H51.0979V13.356H52.6939L52.9739 14.336H53.0859C53.2539 14.0747 53.4592 13.8647 53.7019 13.706C53.9445 13.538 54.2152 13.4167 54.5139 13.342C54.8125 13.258 55.1205 13.216 55.4379 13.216ZM66.743 17.164C66.743 17.7987 66.6544 18.3633 66.477 18.858C66.309 19.3527 66.0617 19.7727 65.735 20.118C65.4177 20.454 65.0304 20.7107 64.573 20.888C64.1157 21.056 63.5977 21.14 63.019 21.14C62.487 21.14 61.9924 21.056 61.535 20.888C61.087 20.7107 60.6997 20.454 60.373 20.118C60.0464 19.7727 59.7897 19.3527 59.603 18.858C59.4257 18.3633 59.337 17.7987 59.337 17.164C59.337 16.3147 59.4864 15.6007 59.785 15.022C60.0837 14.434 60.513 13.986 61.073 13.678C61.633 13.37 62.2957 13.216 63.061 13.216C63.7797 13.216 64.4144 13.37 64.965 13.678C65.5157 13.986 65.9497 14.434 66.267 15.022C66.5844 15.6007 66.743 16.3147 66.743 17.164ZM61.465 17.164C61.465 17.668 61.5164 18.0927 61.619 18.438C61.731 18.774 61.9037 19.0307 62.137 19.208C62.3704 19.376 62.6737 19.46 63.047 19.46C63.4204 19.46 63.719 19.376 63.943 19.208C64.1764 19.0307 64.3444 18.774 64.447 18.438C64.559 18.0927 64.615 17.668 64.615 17.164C64.615 16.66 64.559 16.24 64.447 15.904C64.3444 15.568 64.1764 15.316 63.943 15.148C63.7097 14.98 63.4064 14.896 63.033 14.896C62.4824 14.896 62.081 15.0873 61.829 15.47C61.5864 15.8433 61.465 16.408 61.465 17.164ZM73.3916 18.326C73.3542 18.1673 73.2982 17.934 73.2236 17.626C73.1582 17.3087 73.0836 16.9727 72.9996 16.618C72.9156 16.254 72.8362 15.9227 72.7616 15.624C72.6869 15.316 72.6356 15.092 72.6076 14.952H72.5516C72.5236 15.092 72.4722 15.316 72.3976 15.624C72.3322 15.9227 72.2576 16.254 72.1736 16.618C72.0896 16.9727 72.0102 17.3087 71.9356 17.626C71.8609 17.9433 71.8049 18.186 71.7676 18.354L71.1516 21H68.9116L66.7416 13.356H68.8136L69.6956 16.744C69.7609 16.9773 69.8169 17.2573 69.8636 17.584C69.9196 17.9107 69.9709 18.228 70.0176 18.536C70.0642 18.8347 70.0969 19.0727 70.1156 19.25H70.1716C70.1809 19.1193 70.1996 18.9467 70.2276 18.732C70.2556 18.508 70.2882 18.2793 70.3256 18.046C70.3722 17.8127 70.4096 17.6027 70.4376 17.416C70.4749 17.22 70.5029 17.0893 70.5216 17.024L71.4596 13.356H73.7556L74.6516 17.024C74.6889 17.1547 74.7309 17.3647 74.7776 17.654C74.8336 17.9433 74.8802 18.2373 74.9176 18.536C74.9642 18.8347 74.9876 19.0727 74.9876 19.25H75.0436C75.0622 19.0913 75.0949 18.8627 75.1416 18.564C75.1882 18.256 75.2396 17.934 75.2956 17.598C75.3609 17.262 75.4262 16.9773 75.4916 16.744L76.4016 13.356H78.4456L76.2476 21H73.9796L73.3916 18.326Z" fill="#34343C"/>
<defs>
<clipPath id="clip0_19_1478">
<rect width="16" height="16" fill="white" transform="translate(8 8)"/>
</clipPath>
</defs>
</svg>
