<svg width="71" height="16" viewBox="0 0 71 16" fill="none" xmlns="http://www.w3.org/2000/svg">
<g clip-path="url(#clip0_20_1318)">
<path d="M6.45707 0.285645H0.971359C0.592649 0.285645 0.285645 0.592649 0.285645 0.971359V6.45707C0.285645 6.83578 0.592649 7.14279 0.971359 7.14279H6.45707C6.83578 7.14279 7.14279 6.83578 7.14279 6.45707V0.971359C7.14279 0.592649 6.83578 0.285645 6.45707 0.285645Z" fill="#70F6A7"/>
<path d="M15.9999 3.71429C15.9999 1.66294 14.3369 0 12.2856 0C10.2342 0 8.57129 1.66294 8.57129 3.71429C8.57129 5.76563 10.2342 7.42857 12.2856 7.42857C14.3369 7.42857 15.9999 5.76563 15.9999 3.71429Z" fill="#6FB7F5"/>
<path d="M2.95412 9.0399C3.26841 8.41704 4.15984 8.41704 4.46841 9.0399L5.82841 11.7599L7.33127 14.7713C7.61127 15.337 7.20555 15.9999 6.57127 15.9999H0.845551C0.216979 15.9999 -0.194449 15.337 0.0855506 14.7713L1.58841 11.7599L2.94841 9.0399H2.95412Z" fill="#F9E59E"/>
<path d="M13.8455 12.2855L15.6798 10.4513C16.1084 10.0227 16.1084 9.32554 15.6798 8.89125C15.2513 8.46268 14.5541 8.46268 14.1198 8.89125L12.2855 10.7255L10.4513 8.89125C10.0227 8.46268 9.32554 8.46268 8.89125 8.89125C8.46268 9.31982 8.46268 10.017 8.89125 10.4513L10.7255 12.2855L8.89125 14.1198C8.46268 14.5484 8.46268 15.2455 8.89125 15.6798C9.1084 15.897 9.3884 15.9998 9.6684 15.9998C9.9484 15.9998 10.2341 15.8913 10.4455 15.6798L12.2798 13.8455L14.1141 15.6798C14.3313 15.897 14.6113 15.9998 14.8913 15.9998C15.1713 15.9998 15.457 15.8913 15.6684 15.6798C16.097 15.2513 16.097 14.5541 15.6684 14.1198L13.8341 12.2855H13.8455Z" fill="#FA9EA6"/>
</g>
<path d="M26.452 3.004C27.74 3.004 28.678 3.284 29.266 3.844C29.8633 4.39467 30.162 5.15533 30.162 6.126C30.162 6.56467 30.0967 6.98467 29.966 7.386C29.8353 7.778 29.616 8.13267 29.308 8.45C29.0093 8.758 28.6127 9.00067 28.118 9.178C27.6233 9.35533 27.012 9.444 26.284 9.444H25.374V13H23.26V3.004H26.452ZM26.34 4.74H25.374V7.708H26.074C26.4753 7.708 26.8207 7.65667 27.11 7.554C27.3993 7.45133 27.6233 7.288 27.782 7.064C27.9407 6.84 28.02 6.55067 28.02 6.196C28.02 5.70133 27.8847 5.33733 27.614 5.104C27.3433 4.86133 26.9187 4.74 26.34 4.74ZM33.469 13H31.383V2.36H33.469V13ZM38.2846 5.202C39.3113 5.202 40.0953 5.426 40.6366 5.874C41.1873 6.31267 41.4626 6.98933 41.4626 7.904V13H40.0066L39.6006 11.964H39.5446C39.33 12.2347 39.106 12.4587 38.8726 12.636C38.6486 12.8133 38.3873 12.9393 38.0886 13.014C37.7993 13.098 37.44 13.14 37.0106 13.14C36.5626 13.14 36.1566 13.056 35.7926 12.888C35.438 12.7107 35.158 12.4447 34.9526 12.09C34.7473 11.726 34.6446 11.2687 34.6446 10.718C34.6446 9.906 34.9293 9.30867 35.4986 8.926C36.068 8.534 36.922 8.31933 38.0606 8.282L39.3906 8.24V7.904C39.3906 7.50267 39.2833 7.20867 39.0686 7.022C38.8633 6.83533 38.574 6.742 38.2006 6.742C37.8273 6.742 37.4633 6.798 37.1086 6.91C36.754 7.01267 36.3993 7.14333 36.0446 7.302L35.3586 5.888C35.7693 5.67333 36.222 5.50533 36.7166 5.384C37.2206 5.26267 37.7433 5.202 38.2846 5.202ZM38.5786 9.486C37.9066 9.50467 37.44 9.626 37.1786 9.85C36.9173 10.074 36.7866 10.368 36.7866 10.732C36.7866 11.0493 36.88 11.278 37.0666 11.418C37.2533 11.5487 37.496 11.614 37.7946 11.614C38.2426 11.614 38.6206 11.4833 38.9286 11.222C39.2366 10.9513 39.3906 10.5733 39.3906 10.088V9.458L38.5786 9.486ZM47.4379 5.216C48.2592 5.216 48.9172 5.44 49.4119 5.888C49.9065 6.32667 50.1539 7.036 50.1539 8.016V13H48.0679V8.534C48.0679 7.98333 47.9699 7.57267 47.7739 7.302C47.5779 7.022 47.2652 6.882 46.8359 6.882C46.2012 6.882 45.7672 7.10133 45.5339 7.54C45.3005 7.96933 45.1839 8.59 45.1839 9.402V13H43.0979V5.356H44.6939L44.9739 6.336H45.0859C45.2539 6.07467 45.4592 5.86467 45.7019 5.706C45.9445 5.538 46.2152 5.41667 46.5139 5.342C46.8125 5.258 47.1205 5.216 47.4379 5.216ZM58.743 9.164C58.743 9.79867 58.6544 10.3633 58.477 10.858C58.309 11.3527 58.0617 11.7727 57.735 12.118C57.4177 12.454 57.0304 12.7107 56.573 12.888C56.1157 13.056 55.5977 13.14 55.019 13.14C54.487 13.14 53.9924 13.056 53.535 12.888C53.087 12.7107 52.6997 12.454 52.373 12.118C52.0464 11.7727 51.7897 11.3527 51.603 10.858C51.4257 10.3633 51.337 9.79867 51.337 9.164C51.337 8.31467 51.4864 7.60067 51.785 7.022C52.0837 6.434 52.513 5.986 53.073 5.678C53.633 5.37 54.2957 5.216 55.061 5.216C55.7797 5.216 56.4144 5.37 56.965 5.678C57.5157 5.986 57.9497 6.434 58.267 7.022C58.5844 7.60067 58.743 8.31467 58.743 9.164ZM53.465 9.164C53.465 9.668 53.5164 10.0927 53.619 10.438C53.731 10.774 53.9037 11.0307 54.137 11.208C54.3704 11.376 54.6737 11.46 55.047 11.46C55.4204 11.46 55.719 11.376 55.943 11.208C56.1764 11.0307 56.3444 10.774 56.447 10.438C56.559 10.0927 56.615 9.668 56.615 9.164C56.615 8.66 56.559 8.24 56.447 7.904C56.3444 7.568 56.1764 7.316 55.943 7.148C55.7097 6.98 55.4064 6.896 55.033 6.896C54.4824 6.896 54.081 7.08733 53.829 7.47C53.5864 7.84333 53.465 8.408 53.465 9.164ZM65.3916 10.326C65.3542 10.1673 65.2982 9.934 65.2236 9.626C65.1582 9.30867 65.0836 8.97267 64.9996 8.618C64.9156 8.254 64.8362 7.92267 64.7616 7.624C64.6869 7.316 64.6356 7.092 64.6076 6.952H64.5516C64.5236 7.092 64.4722 7.316 64.3976 7.624C64.3322 7.92267 64.2576 8.254 64.1736 8.618C64.0896 8.97267 64.0102 9.30867 63.9356 9.626C63.8609 9.94333 63.8049 10.186 63.7676 10.354L63.1516 13H60.9116L58.7416 5.356H60.8136L61.6956 8.744C61.7609 8.97733 61.8169 9.25733 61.8636 9.584C61.9196 9.91067 61.9709 10.228 62.0176 10.536C62.0642 10.8347 62.0969 11.0727 62.1156 11.25H62.1716C62.1809 11.1193 62.1996 10.9467 62.2276 10.732C62.2556 10.508 62.2882 10.2793 62.3256 10.046C62.3722 9.81267 62.4096 9.60267 62.4376 9.416C62.4749 9.22 62.5029 9.08933 62.5216 9.024L63.4596 5.356H65.7556L66.6516 9.024C66.6889 9.15467 66.7309 9.36467 66.7776 9.654C66.8336 9.94333 66.8802 10.2373 66.9176 10.536C66.9642 10.8347 66.9876 11.0727 66.9876 11.25H67.0436C67.0622 11.0913 67.0949 10.8627 67.1416 10.564C67.1882 10.256 67.2396 9.934 67.2956 9.598C67.3609 9.262 67.4262 8.97733 67.4916 8.744L68.4016 5.356H70.4456L68.2476 13H65.9796L65.3916 10.326Z" fill="#DDDDF4" fill-opacity="0.48"/>
<defs>
<clipPath id="clip0_20_1318">
<rect width="16" height="16" fill="white"/>
</clipPath>
</defs>
</svg>
